<?xml version="1.0" encoding="utf-8"?>
<svg width="28px" height="48px" viewBox="0 0 28 48" version="1.1" xmlns:xlink="http://www.w3.org/1999/xlink" xmlns="http://www.w3.org/2000/svg">
  <desc>Created with Lunacy</desc>
  <path d="M14 0C13.5497 5.56907e-05 13.1469 0.283934 12.9904 0.711648L0.332332 25.0227C0.116161 25.3697 0.000975536 25.7715 0 26.1818C0 27.3868 0.96431 28.3636 2.15385 28.3636L12.9231 28.3636L12.9231 46.9091C12.9231 47.5116 13.4052 48 14 48C14.4041 48.0005 14.7744 47.7718 14.9591 47.4077L27.7097 22.9134L27.7055 22.9091C27.8966 22.578 27.9982 22.2017 28 21.8182C28 20.6132 27.0357 19.6364 25.8462 19.6364L15.0769 19.6364L15.0769 1.09091C15.0769 0.488417 14.5948 0 14 0Z" id="material_bolt" fill="#5558DB" stroke="none" />
</svg>